<?xml version="1.0" encoding="UTF-8" standalone="no"?>
<svg
   xmlns:dc="http://purl.org/dc/elements/1.1/"
   xmlns:cc="http://creativecommons.org/ns#"
   xmlns:rdf="http://www.w3.org/1999/02/22-rdf-syntax-ns#"
   xmlns:svg="http://www.w3.org/2000/svg"
   xmlns="http://www.w3.org/2000/svg"
   id="svg8"
   version="1.1"
   viewBox="0 0 184.94374 70.643745"
   height="70.643745mm"
   width="184.94374mm">
  <defs
     id="defs2">
    <marker
       style="overflow:visible"
       id="Arrow2Mend"
       refX="0"
       refY="0"
       orient="auto">
      <path
         transform="scale(-0.6)"
         d="M 8.7185878,4.0337352 -2.2072895,0.01601326 8.7185884,-4.0017078 c -1.7454984,2.3720609 -1.7354408,5.6174519 -6e-7,8.035443 z"
         style="fill:#fffefe;fill-opacity:1;fill-rule:evenodd;stroke:#fffefe;stroke-width:0.625;stroke-linejoin:round;stroke-opacity:1"
         id="path4564" />
    </marker>
    <marker
       style="overflow:visible"
       id="Arrow2Lend"
       refX="0"
       refY="0"
       orient="auto">
      <path
         transform="matrix(-1.1,0,0,-1.1,-1.1,0)"
         d="M 8.7185878,4.0337352 -2.2072895,0.01601326 8.7185884,-4.0017078 c -1.7454984,2.3720609 -1.7354408,5.6174519 -6e-7,8.035443 z"
         style="fill:#000000;fill-opacity:1;fill-rule:evenodd;stroke:#000000;stroke-width:0.625;stroke-linejoin:round;stroke-opacity:1"
         id="path4558" />
    </marker>
    <marker
       style="overflow:visible"
       id="Arrow1Lend"
       refX="0"
       refY="0"
       orient="auto">
      <path
         transform="matrix(-0.8,0,0,-0.8,-10,0)"
         style="fill:#000000;fill-opacity:1;fill-rule:evenodd;stroke:#000000;stroke-width:1.00000003pt;stroke-opacity:1"
         d="M 0,0 5,-5 -12.5,0 5,5 Z"
         id="path4540" />
    </marker>
  </defs>
  <metadata
     id="metadata5">
    <rdf:RDF>
      <cc:Work
         rdf:about="">
        <dc:format>image/svg+xml</dc:format>
        <dc:type
           rdf:resource="http://purl.org/dc/dcmitype/StillImage" />
        <dc:title></dc:title>
      </cc:Work>
    </rdf:RDF>
  </metadata>
  <g
     transform="translate(-10.847917,-85.068748)"
     id="layer1">
    <rect
       ry="10.31875"
       y="85.068748"
       x="10.847917"
       height="70.643745"
       width="184.94374"
       id="rect3707"
       style="fill:#009900;fill-opacity:1;stroke-width:0.26458332" />
    <text
       transform="scale(1.0665664,0.93758814)"
       id="text4516"
       y="121.79314"
       x="21.242464"
       style="font-style:normal;font-variant:normal;font-weight:normal;font-stretch:normal;font-size:21.67699051px;line-height:1.25;font-family:'Highway Gothic';-inkscape-font-specification:'Highway Gothic';letter-spacing:0px;word-spacing:0px;fill:#000000;fill-opacity:1;stroke:none;stroke-width:0.54192483"
       xml:space="preserve"><tspan
         style="letter-spacing:0.46222001px;fill:#ffffff;fill-opacity:1;stroke-width:0.54192483"
         y="121.79314"
         x="21.242464"
         id="tspan4514">Truth and</tspan><tspan
         id="tspan4518"
         style="letter-spacing:0.46222001px;fill:#ffffff;fill-opacity:1;stroke-width:0.54192483"
         y="148.88937"
         x="21.242464">Cont. Sequences</tspan></text>
    <rect
       ry="8.4846706"
       y="87.547882"
       x="13.576076"
       height="65.420898"
       width="179.47189"
       id="rect3707-5"
       style="fill:none;fill-opacity:1;stroke:#ffffff;stroke-width:1.25410032;stroke-miterlimit:4;stroke-dasharray:none;stroke-opacity:1" />
    <path
       d="m 172.62568,110.79821 2.79381,-14.411383 c 0.0742,-0.272808 0.005,-0.576446 -0.20981,-0.790597 -0.21405,-0.214242 -0.51769,-0.283917 -0.7905,-0.209795 l -14.41148,2.793796 c -0.1552,0.02937 -0.30373,0.104074 -0.42396,0.224299 -0.31812,0.318228 -0.31812,0.83399 0,1.152215 0.0509,0.05088 0.10689,0.09354 0.16632,0.128129 l 5.12635,3.148266 -12.2415,11.23341 4.1045,4.10447 11.23337,-12.24151 3.14836,5.12634 c 0.0346,0.0594 0.0772,0.11538 0.12814,0.16632 0.31812,0.31812 0.83398,0.31812 1.15211,0 0.12022,-0.12013 0.19502,-0.26866 0.22429,-0.42396"
       style="fill:#ffffff;fill-opacity:1;fill-rule:nonzero;stroke:none;stroke-width:0.00966377"
       id="path5098" />
  </g>
</svg>
