<?xml version="1.0" encoding="UTF-8" standalone="no"?>
<svg
   xmlns:dc="http://purl.org/dc/elements/1.1/"
   xmlns:cc="http://creativecommons.org/ns#"
   xmlns:rdf="http://www.w3.org/1999/02/22-rdf-syntax-ns#"
   xmlns:svg="http://www.w3.org/2000/svg"
   xmlns="http://www.w3.org/2000/svg"
   id="svg8"
   version="1.1"
   viewBox="0 0 184.94374 49.873951"
   height="49.873951mm"
   width="184.94374mm">
  <defs
     id="defs2">
    <marker
       style="overflow:visible"
       id="Arrow2Mend"
       refX="0"
       refY="0"
       orient="auto">
      <path
         transform="scale(-0.6)"
         d="M 8.7185878,4.0337352 -2.2072895,0.01601326 8.7185884,-4.0017078 c -1.7454984,2.3720609 -1.7354408,5.6174519 -6e-7,8.035443 z"
         style="fill:#fffefe;fill-opacity:1;fill-rule:evenodd;stroke:#fffefe;stroke-width:0.625;stroke-linejoin:round;stroke-opacity:1"
         id="path4564" />
    </marker>
    <marker
       style="overflow:visible"
       id="Arrow2Lend"
       refX="0"
       refY="0"
       orient="auto">
      <path
         transform="matrix(-1.1,0,0,-1.1,-1.1,0)"
         d="M 8.7185878,4.0337352 -2.2072895,0.01601326 8.7185884,-4.0017078 c -1.7454984,2.3720609 -1.7354408,5.6174519 -6e-7,8.035443 z"
         style="fill:#000000;fill-opacity:1;fill-rule:evenodd;stroke:#000000;stroke-width:0.625;stroke-linejoin:round;stroke-opacity:1"
         id="path4558" />
    </marker>
    <marker
       style="overflow:visible"
       id="Arrow1Lend"
       refX="0"
       refY="0"
       orient="auto">
      <path
         transform="matrix(-0.8,0,0,-0.8,-10,0)"
         style="fill:#000000;fill-opacity:1;fill-rule:evenodd;stroke:#000000;stroke-width:1.00000003pt;stroke-opacity:1"
         d="M 0,0 5,-5 -12.5,0 5,5 Z"
         id="path4540" />
    </marker>
  </defs>
  <metadata
     id="metadata5">
    <rdf:RDF>
      <cc:Work
         rdf:about="">
        <dc:format>image/svg+xml</dc:format>
        <dc:type
           rdf:resource="http://purl.org/dc/dcmitype/StillImage" />
        <dc:title></dc:title>
      </cc:Work>
    </rdf:RDF>
  </metadata>
  <g
     transform="translate(-10.847917,-84.936455)"
     id="layer1">
    <rect
       ry="7.2849603"
       y="84.936455"
       x="10.847917"
       height="49.873951"
       width="184.94374"
       id="rect3707"
       style="fill:#009900;fill-opacity:1;stroke-width:0.22231179" />
    <text
       transform="scale(1.0665664,0.93758814)"
       id="text4516"
       y="132.31686"
       x="17.512552"
       style="font-style:normal;font-variant:normal;font-weight:normal;font-stretch:normal;font-size:46.66115189px;line-height:1.25;font-family:'Highway Gothic';-inkscape-font-specification:'Highway Gothic';letter-spacing:0px;word-spacing:0px;fill:#000000;fill-opacity:1;stroke:none;stroke-width:1.16652894"
       xml:space="preserve"><tspan
         id="tspan4518"
         style="letter-spacing:0.994959px;fill:#ffffff;fill-opacity:1;stroke-width:1.16652894"
         y="132.31686"
         x="17.512552"><tspan
   id="tspan5240"
   style="letter-spacing:-0.92604166px">T</tspan>ACS</tspan></text>
    <rect
       ry="5.767952"
       y="87.438156"
       x="13.466348"
       height="44.473686"
       width="179.69135"
       id="rect3707-5"
       style="fill:none;fill-opacity:1;stroke:#ffffff;stroke-width:1.03464401;stroke-miterlimit:4;stroke-dasharray:none;stroke-opacity:1" />
    <g
       transform="matrix(1.3066997,0,0,1.3066997,-42.515695,-30.385687)"
       id="g5180">
      <path
         id="path5098"
         style="fill:#ffffff;fill-opacity:1;fill-rule:nonzero;stroke:none;stroke-width:0.00966377"
         d="m 171.17047,111.0628 2.79381,-14.41139 c 0.0742,-0.272808 0.005,-0.576446 -0.20981,-0.790597 -0.21405,-0.214242 -0.51769,-0.283917 -0.7905,-0.209795 l -14.41148,2.793796 c -0.1552,0.02937 -0.30373,0.104074 -0.42396,0.224299 -0.31812,0.318233 -0.31812,0.83399 0,1.15221 0.0509,0.0509 0.10689,0.0935 0.16632,0.12813 l 5.12635,3.148277 -0.59983,2.76674 0.40033,1.19406 3.29587,-0.86443 3.14836,5.12634 c 0.0346,0.0594 0.0772,0.11538 0.12814,0.16632 0.31812,0.31812 0.83398,0.31812 1.15211,0 0.12022,-0.12013 0.19502,-0.26866 0.22429,-0.42396" />
      <path
         id="path5098-8"
         style="fill:#ffffff;fill-opacity:1;fill-rule:nonzero;stroke:none;stroke-width:0.00966377"
         d="m 144.37128,106.53749 -9.19879,7.92611 4.1045,4.10447 8.32295,-9.33109" />
      <path
         style="fill:none;stroke:#ffffff;stroke-width:4.3656249;stroke-linecap:butt;stroke-linejoin:miter;stroke-miterlimit:4;stroke-dasharray:none;stroke-opacity:1"
         d="m 141.41978,112.45313 3.57188,-3.30728 11.37709,3.96875 12.17083,-11.77396"
         id="path5167" />
    </g>
  </g>
</svg>
